<svg height="512" viewBox="0 0 128 128" width="512" xmlns="http://www.w3.org/2000/svg"><g><g><rect fill="#47568c" height="124.5" rx="5" width="124.5" x="1.75" y="1.747"/><path d="m17.242 11.747v24.984h11v-13.984h30.258v82.5h-17v11h45v-11h-17v-82.5h30.258v13.984h11v-24.984z" fill="#50c5ff"/></g><g><path d="m121.25 0h-89.813a1.75 1.75 0 0 0 0 3.5h89.813a3.254 3.254 0 0 1 3.25 3.25v114.5a3.254 3.254 0 0 1 -3.25 3.25h-114.5a3.254 3.254 0 0 1 -3.25-3.25v-114.503a3.254 3.254 0 0 1 3.25-3.247h10.492a1.75 1.75 0 1 0 0-3.5h-10.492a6.758 6.758 0 0 0 -6.75 6.747v114.5a6.758 6.758 0 0 0 6.75 6.753h114.5a6.758 6.758 0 0 0 6.75-6.75v-114.503a6.758 6.758 0 0 0 -6.75-6.747z"/><path d="m99.758 38.481h11a1.749 1.749 0 0 0 1.75-1.75v-24.984a1.749 1.749 0 0 0 -1.75-1.75h-93.516a1.749 1.749 0 0 0 -1.75 1.75v24.984a1.749 1.749 0 0 0 1.75 1.75h11a1.749 1.749 0 0 0 1.75-1.75v-12.231h26.758v79h-15.25a1.749 1.749 0 0 0 -1.75 1.75v11a1.749 1.749 0 0 0 1.75 1.75h45a1.749 1.749 0 0 0 1.75-1.75v-11a1.749 1.749 0 0 0 -1.75-1.75h-15.25v-9.875a1.75 1.75 0 0 0 -3.5 0v11.622a1.749 1.749 0 0 0 1.75 1.753h15.25v7.5h-41.5v-7.5h15.25a1.749 1.749 0 0 0 1.75-1.75v-82.5a1.749 1.749 0 0 0 -1.75-1.75h-30.258a1.749 1.749 0 0 0 -1.75 1.75v12.231h-7.5v-21.481h90.016v21.481h-7.5v-12.234a1.749 1.749 0 0 0 -1.75-1.747h-30.258a1.749 1.749 0 0 0 -1.75 1.75v33.375a1.75 1.75 0 0 0 3.5 0v-31.625h26.758v12.231a1.749 1.749 0 0 0 1.75 1.75z"/><path d="m69.5 68.966a1.749 1.749 0 0 0 -1.75 1.75v8.318a1.75 1.75 0 0 0 3.5 0v-8.318a1.749 1.749 0 0 0 -1.75-1.75z"/></g></g></svg>